# xmcd
#
# Track frame offsets: 
#        150
#        16958
#        29847
#        42371
#        55078
#        66215
#        82614
#        92167
#        103783
#        116234
#        131468
#        144473
#        155285
#        178802
#        192881
#        209623
#        220463
#        239256
#        254362
#        267260
#
# Disc length: 3716 seconds
#
# Revision: 1
# Processed by: cddbd v1.5.2PL0 Copyright (c) Steve Scherf et al.
# Submitted via: ExactAudioCopy v1.0b1
#
DISCID=260e8214
DTITLE=The Carters Brothers - Blues On Tour
DYEAR=1965
DGENRE=
TTITLE0=Carter's Pills (Inst.) Take 1
TTITLE1=Suckers Of Circumstances
TTITLE2=Wonderful Girl
TTITLE3=Anything For Your Baby
TTITLE4=Get It Together
TTITLE5=Wrong Number
TTITLE6=You Don't Know
TTITLE7=Just Consider Yourself Baby
TTITLE8=I Feel Alright
TTITLE9=I Woke Up Smilin'
TTITLE10=Hey It's Alright
TTITLE11=Cheatin' Woman
TTITLE12=Blues Brothers (Inst.)
TTITLE13=Booze In The Bottle (Overdub Take 1)
TTITLE14=Booby Trap Baby (Take 1)
TTITLE15=Stop Talkin' In Your Sleep (Take 2)
TTITLE16=Booby Trap Baby (Take 2)
TTITLE17=(She's So Fine) So Glad She's Mine (Take 1)
TTITLE18=Southern Country Boy (Take Unknown)
TTITLE19=Cheatin' Woman (Take Uknown)
EXTD=
EXTT0=
EXTT1=
EXTT2=
EXTT3=
EXTT4=
EXTT5=
EXTT6=
EXTT7=
EXTT8=
EXTT9=
EXTT10=
EXTT11=
EXTT12=
EXTT13=
EXTT14=
EXTT15=
EXTT16=
EXTT17=
EXTT18=
EXTT19=
PLAYORDER=
